<?xml version="1.0" standalone="no"?>
<svg height="499.425" preserveAspectRatio="none" viewBox="0.000 0.000 1106.469 499.425" width="1106.469" x="0.000" xmlns="http://www.w3.org/2000/svg" xmlns:svg="http://www.w3.org/2000/svg" xmlns:xlink="http://www.w3.org/1999/xlink" y="0.000">
<svg width="1106.469" height="499.425" xmlns="http://www.w3.org/2000/svg"><defs><clipPath id="Lmw8PcOTclipPath1"><path fill="#000000" stroke="none" d="M 0 0 L 1106.469 0 L 1106.469 499.425 L 0 499.425 Z"/></clipPath><clipPath id="Lmw8PcOTclip-0"><path fill="#000000" stroke="none" d="M 0 0 L 1106.469 0 L 1106.469 499.426 L 0 499.426 Z M 0 0"/></clipPath><clipPath id="Lmw8PcOTclip-1"><path fill="#000000" stroke="none" d="M 27 71 L 147 71 L 147 204 L 27 204 Z M 27 71"/></clipPath><clipPath id="Lmw8PcOTclip-2"><path fill="#000000" stroke="none" d="M 27 301 L 148 301 L 148 435 L 27 435 Z M 27 301"/></clipPath><clipPath id="Lmw8PcOTclip-3"><path fill="#000000" stroke="none" d="M 27 176 L 146 176 L 146 310 L 27 310 Z M 27 176"/></clipPath><clipPath id="Lmw8PcOTclip-4"><path fill="#000000" stroke="none" d="M 118 37 L 531 37 L 531 472.426 L 118 472.426 Z M 118 37"/></clipPath><clipPath id="Lmw8PcOTclip-5"><path fill="#000000" stroke="none" d="M 684 37 L 1079.469 37 L 1079.469 472.426 L 684 472.426 Z M 684 37"/></clipPath></defs><g transform="matrix(1 0 0 1 -57.694 -744.94)"><g transform="matrix(1 0 0 1 57.6937 744.9397)"><g clip-path="url(#Lmw8PcOTclipPath1)"><g clip-path="url(#Lmw8PcOTclip-0)"><path fill="#ffffff" stroke="none" d="M 0 0 L 1106.469 0 L 1106.469 499.426 L 0 499.426 Z M 0 0"/></g><g clip-path="url(#Lmw8PcOTclip-1)"><g transform="matrix(1 0 0 1 79.4592 138.1971)"><path fill="none" stroke="#000000" stroke-miterlimit="10" stroke-width="2.4" d="M -2.186 -32.123 C 3.994 -33.064 12.924 -30.357 18.49 -26.103 C 24.056 -21.853 29.521 -13.279 31.205 -6.615 C 32.889 0.049 31.662 7.862 28.592 13.881 C 25.521 19.905 19.072 26.83 12.783 29.522 C 6.494 32.213 -2.74 32.225 -9.147 30.03 C -15.557 27.838 -22.154 22.01 -25.674 16.369 C -29.197 10.729 -31.143 2.889 -30.283 -3.806 C -29.424 -10.502 -25.541 -19.158 -20.526 -23.806 C -15.514 -28.455 -3.936 -30.533 -0.197 -31.701 C 3.537 -32.869 1.748 -31.365 1.889 -30.81 M 11.748 -29.103 C 17.974 -27.31 26.119 -22.045 29.459 -15.756 C 32.803 -9.467 33.576 1.666 31.787 8.627 C 30.002 15.584 24.431 22.256 18.728 25.998 C 13.025 29.74 4.131 31.311 -2.432 31.08 C -8.994 30.85 -15.725 29.322 -20.647 24.619 C -25.572 19.92 -30.951 9.951 -31.971 2.869 C -32.99 -4.217 -30.799 -12.053 -26.772 -17.888 C -22.748 -23.724 -14.264 -30.252 -7.826 -32.158 C -1.393 -34.06 8.33 -29.705 11.838 -29.31 C 15.346 -28.92 13.135 -30.209 13.217 -29.795"/></g></g><g clip-path="url(#Lmw8PcOTclip-2)"><g transform="matrix(1 0 0 1 81.1386 368.4783)"><path fill="none" stroke="#000000" stroke-miterlimit="10" stroke-width="2.4" d="M -2.185 -32.123 C 3.994 -33.064 12.924 -30.357 18.49 -26.103 C 24.057 -21.853 29.522 -13.279 31.205 -6.615 C 32.889 0.049 31.662 7.862 28.592 13.881 C 25.522 19.905 19.072 26.83 12.783 29.522 C 6.494 32.213 -2.74 32.225 -9.15 30.03 C -15.557 27.838 -22.154 22.01 -25.674 16.369 C -29.197 10.729 -31.143 2.889 -30.283 -3.806 C -29.424 -10.502 -25.541 -19.158 -20.529 -23.806 C -15.514 -28.455 -3.935 -30.533 -0.197 -31.701 C 3.537 -32.869 1.748 -31.365 1.889 -30.81 M 11.748 -29.103 C 17.975 -27.31 26.119 -22.045 29.459 -15.756 C 32.799 -9.467 33.576 1.666 31.787 8.627 C 29.998 15.584 24.432 22.256 18.729 25.998 C 13.025 29.74 4.131 31.311 -2.432 31.08 C -8.994 30.85 -15.725 29.323 -20.646 24.619 C -25.572 19.92 -30.951 9.951 -31.971 2.869 C -32.99 -4.217 -30.799 -12.052 -26.775 -17.888 C -22.748 -23.724 -14.264 -30.252 -7.826 -32.158 C -1.393 -34.06 8.33 -29.705 11.838 -29.31 C 15.346 -28.92 13.135 -30.209 13.217 -29.795"/></g></g><g clip-path="url(#Lmw8PcOTclip-3)"><g transform="matrix(1 0 0 1 79.0959 243.4624)"><path fill="none" stroke="#000000" stroke-miterlimit="10" stroke-width="2.4" d="M -2.186 -32.122 C 3.994 -33.064 12.924 -30.357 18.49 -26.103 C 24.056 -21.853 29.521 -13.279 31.205 -6.615 C 32.889 0.049 31.662 7.858 28.592 13.881 C 25.521 19.905 19.072 26.831 12.783 29.522 C 6.494 32.213 -2.74 32.225 -9.147 30.03 C -15.557 27.838 -22.154 22.01 -25.674 16.37 C -29.197 10.729 -31.143 2.889 -30.283 -3.806 C -29.424 -10.501 -25.541 -19.158 -20.526 -23.806 C -15.514 -28.455 -3.936 -30.533 -0.197 -31.701 C 3.537 -32.869 1.748 -31.365 1.889 -30.81 M 11.748 -29.103 C 17.974 -27.31 26.119 -22.044 29.459 -15.755 C 32.803 -9.466 33.576 1.667 31.787 8.628 C 30.002 15.585 24.431 22.256 18.728 25.999 C 13.025 29.741 4.131 31.311 -2.432 31.081 C -8.994 30.85 -15.725 29.323 -20.647 24.62 C -25.572 19.917 -30.951 9.952 -31.971 2.87 C -32.99 -4.216 -30.799 -12.052 -26.772 -17.888 C -22.748 -23.728 -14.264 -30.251 -7.826 -32.158 C -1.393 -34.06 8.33 -29.705 11.838 -29.31 C 15.346 -28.919 13.135 -30.208 13.217 -29.798"/></g></g><g><g transform="matrix(1 0 0 1 64.625 160.0586)"><g><path fill="#000000" stroke="none" d="M 0.031 0 L 0.031 -1.438 L 0.578 -1.438 C 1.191 -1.438 1.664 -1.594 2 -1.906 C 2.332 -2.219 2.68 -2.883 3.047 -3.906 L 10.109 -22.844 L 13.125 -22.844 L 20.25 -3.203 C 20.488 -2.516 20.781 -2.047 21.125 -1.797 C 21.477 -1.555 21.969 -1.438 22.594 -1.438 L 22.969 -1.438 L 22.969 0 L 13.703 0 L 13.703 -1.438 L 14.531 -1.438 C 15.75 -1.438 16.359 -1.914 16.359 -2.875 C 16.359 -3.094 16.328 -3.301 16.266 -3.5 C 16.211 -3.707 16.145 -3.914 16.063 -4.125 L 14.844 -7.609 L 6.594 -7.609 L 5.469 -4.422 C 5.383 -4.16 5.313 -3.895 5.25 -3.625 C 5.188 -3.363 5.156 -3.125 5.156 -2.906 C 5.156 -1.926 5.805 -1.438 7.109 -1.438 L 8 -1.438 L 8 0 Z M 7.234 -9.313 L 14.234 -9.313 L 12.281 -14.969 C 11.988 -15.863 11.707 -16.711 11.438 -17.516 C 11.176 -18.316 10.957 -19.094 10.781 -19.844 C 10.633 -19.094 10.445 -18.363 10.219 -17.656 C 10 -16.957 9.719 -16.148 9.375 -15.234 Z M 7.234 -9.313"/></g></g></g><g><g transform="matrix(1 0 0 1 72.8164 264.3281)"><g><path fill="#000000" stroke="none" d="M 1.125 0 L 1.125 -1.438 L 1.797 -1.438 C 2.43 -1.438 2.984 -1.563 3.453 -1.813 C 3.922 -2.07 4.156 -2.695 4.156 -3.688 L 4.156 -19.266 C 4.156 -20.18 3.922 -20.766 3.453 -21.016 C 2.984 -21.273 2.43 -21.406 1.797 -21.406 L 1.125 -21.406 L 1.125 -22.844 L 9.922 -22.844 C 12.754 -22.844 14.875 -22.379 16.281 -21.453 C 17.695 -20.523 18.406 -19.07 18.406 -17.094 C 18.406 -15.676 18.023 -14.582 17.266 -13.813 C 16.504 -13.051 15.551 -12.488 14.406 -12.125 L 14.406 -11.969 C 15.875 -11.688 17.066 -11.066 17.984 -10.109 C 18.898 -9.148 19.359 -7.848 19.359 -6.203 C 19.359 -2.066 16.531 0 10.875 0 Z M 9.828 -12.797 C 11.598 -12.797 12.805 -13.129 13.453 -13.797 C 14.109 -14.473 14.438 -15.57 14.438 -17.094 C 14.438 -18.625 14.082 -19.68 13.375 -20.266 C 12.664 -20.859 11.461 -21.156 9.766 -21.156 L 7.875 -21.156 L 7.875 -12.797 Z M 10.719 -1.703 C 12.426 -1.703 13.629 -2.047 14.328 -2.734 C 15.035 -3.43 15.391 -4.617 15.391 -6.297 C 15.391 -7.941 15.055 -9.156 14.391 -9.938 C 13.734 -10.719 12.531 -11.109 10.781 -11.109 L 7.875 -11.109 L 7.875 -1.703 Z M 10.719 -1.703"/></g></g></g><g><g transform="matrix(1 0 0 1 72.918 380.3164)"><g><path fill="#000000" stroke="none" d="M 11.844 0.313 C 9.645 0.313 7.797 -0.176 6.297 -1.156 C 4.805 -2.133 3.688 -3.504 2.938 -5.266 C 2.195 -7.023 1.828 -9.086 1.828 -11.453 C 1.828 -13.754 2.219 -15.785 3 -17.547 C 3.789 -19.305 4.961 -20.68 6.516 -21.672 C 8.078 -22.672 10 -23.172 12.281 -23.172 C 14.551 -23.172 16.234 -22.82 17.328 -22.125 C 18.422 -21.438 18.969 -20.578 18.969 -19.547 C 18.969 -18.828 18.68 -18.25 18.109 -17.813 C 17.535 -17.375 16.789 -17.156 15.875 -17.156 C 15.875 -17.832 15.754 -18.488 15.516 -19.125 C 15.285 -19.77 14.898 -20.305 14.359 -20.734 C 13.828 -21.16 13.102 -21.375 12.188 -21.375 C 9.883 -21.375 8.254 -20.516 7.297 -18.797 C 6.336 -17.078 5.859 -14.629 5.859 -11.453 C 5.859 -9.516 6.082 -7.828 6.531 -6.391 C 6.977 -4.961 7.68 -3.859 8.641 -3.078 C 9.598 -2.305 10.859 -1.922 12.422 -1.922 C 13.992 -1.922 15.227 -2.207 16.125 -2.781 C 17.02 -3.352 17.742 -4.004 18.297 -4.734 C 18.68 -4.453 18.875 -4.023 18.875 -3.453 C 18.875 -2.898 18.633 -2.328 18.156 -1.734 C 17.676 -1.148 16.922 -0.66 15.891 -0.266 C 14.859 0.117 13.508 0.313 11.844 0.313 Z M 11.844 0.313"/></g></g></g><g transform="matrix(1 0 0 1 -57.6937 -744.9397)"><path fill="none" stroke="#000000" stroke-miterlimit="10" stroke-width="2.4" d="M 574.369 1009.307 C 626.959 1010.143 683.721 1008.362 758.198 1005.768 M 572.08 1010.018 C 615.553 1011.881 657.08 1009.83 758.662 1003.612"/></g><g transform="matrix(1 0 0 1 -57.6937 -744.9397)"><path fill="none" stroke="#000000" stroke-miterlimit="10" stroke-width="2.4" d="M 748.991 1012.576 C 750.674 1010.151 755.373 1007.494 758.596 1005.358 M 747.35 1013.084 C 750.987 1011.518 753.209 1008.994 758.924 1003.815 M 759.006 1005.522 C 756.139 1000.729 750.272 999.58 748.709 997.022 M 759.381 1004.362 C 755.541 1002.123 749.823 998.174 747.229 996.381"/></g><g><g transform="matrix(1 0 0 1 545.2735 251.5078)"><g><path fill="#000000" stroke="none" d="M 1.125 0 L 1.125 -1.438 L 1.656 -1.438 C 2.32 -1.438 2.906 -1.551 3.406 -1.781 C 3.906 -2.02 4.156 -2.598 4.156 -3.516 L 4.156 -19.297 C 4.156 -20.211 3.898 -20.789 3.391 -21.031 C 2.879 -21.281 2.301 -21.406 1.656 -21.406 L 1.125 -21.406 L 1.125 -22.844 L 10.203 -22.844 C 13.109 -22.844 15.242 -22.32 16.609 -21.281 C 17.973 -20.238 18.656 -18.711 18.656 -16.703 C 18.656 -15.523 18.426 -14.551 17.969 -13.781 C 17.508 -13.02 16.922 -12.406 16.203 -11.938 C 15.492 -11.469 14.754 -11.102 13.984 -10.844 L 18.234 -4.031 C 18.797 -3.156 19.328 -2.504 19.828 -2.078 C 20.328 -1.648 20.895 -1.438 21.531 -1.438 L 21.656 -1.438 L 21.656 0 L 21.031 0 C 19.727 0 18.688 -0.066 17.906 -0.203 C 17.125 -0.348 16.488 -0.625 16 -1.031 C 15.508 -1.445 15.031 -2.063 14.563 -2.875 L 10.406 -10.047 L 7.906 -10.047 L 7.906 -3.516 C 7.906 -2.598 8.145 -2.02 8.625 -1.781 C 9.102 -1.551 9.676 -1.438 10.344 -1.438 L 10.813 -1.438 L 10.813 0 Z M 10.016 -11.641 C 11.785 -11.641 13.004 -12.047 13.672 -12.859 C 14.348 -13.672 14.688 -14.898 14.688 -16.547 C 14.688 -18.234 14.32 -19.43 13.594 -20.141 C 12.875 -20.859 11.66 -21.219 9.953 -21.219 L 7.906 -21.219 L 7.906 -11.641 Z M 10.016 -11.641"/></g></g><g transform="matrix(1 0 0 1 567.2735 251.5078)"><g><path fill="#000000" stroke="none" d="M 9.344 0.313 C 6.914 0.313 5.035 -0.453 3.703 -1.984 C 2.367 -3.516 1.703 -5.672 1.703 -8.453 C 1.703 -11.453 2.332 -13.707 3.594 -15.219 C 4.863 -16.738 6.676 -17.5 9.031 -17.5 C 11.156 -17.5 12.832 -16.852 14.063 -15.563 C 15.289 -14.27 15.906 -12.359 15.906 -9.828 L 15.906 -8.313 L 5.313 -8.313 C 5.352 -6.031 5.766 -4.375 6.547 -3.344 C 7.328 -2.313 8.473 -1.797 9.984 -1.797 C 11.086 -1.797 12.02 -2.035 12.781 -2.516 C 13.539 -2.992 14.113 -3.539 14.5 -4.156 C 14.664 -4.094 14.828 -3.953 14.984 -3.734 C 15.148 -3.523 15.234 -3.27 15.234 -2.969 C 15.234 -2.52 15.02 -2.039 14.594 -1.531 C 14.164 -1.02 13.52 -0.582 12.656 -0.219 C 11.789 0.133 10.688 0.313 9.344 0.313 Z M 12.219 -10.141 C 12.219 -11.805 11.973 -13.145 11.484 -14.156 C 10.992 -15.176 10.16 -15.688 8.984 -15.688 C 7.879 -15.688 7.02 -15.207 6.406 -14.25 C 5.801 -13.301 5.457 -11.93 5.375 -10.141 Z M 12.219 -10.141"/></g></g><g transform="matrix(1 0 0 1 584.2735 251.5078)"><g><path fill="#000000" stroke="none" d="M 2.531 -14.047 C 2.289 -14.711 2 -15.156 1.656 -15.375 C 1.32 -15.602 0.813 -15.719 0.125 -15.719 L 0.125 -17.156 L 8.641 -17.156 L 8.641 -15.719 L 8.094 -15.719 C 6.875 -15.719 6.266 -15.234 6.266 -14.266 C 6.266 -14.078 6.289 -13.883 6.344 -13.688 C 6.406 -13.5 6.469 -13.301 6.531 -13.094 L 8.703 -7.047 C 8.984 -6.273 9.242 -5.461 9.484 -4.609 C 9.734 -3.754 9.93 -3.063 10.078 -2.531 C 10.18 -2.957 10.383 -3.555 10.688 -4.328 C 10.988 -5.109 11.266 -5.844 11.516 -6.531 L 13.797 -12.828 C 13.984 -13.359 14.078 -13.828 14.078 -14.234 C 14.078 -15.223 13.414 -15.719 12.094 -15.719 L 11.813 -15.719 L 11.813 -17.156 L 18.688 -17.156 L 18.688 -15.719 L 18.234 -15.719 C 17.66 -15.719 17.219 -15.555 16.906 -15.234 C 16.602 -14.91 16.27 -14.25 15.906 -13.25 L 10.969 0 L 7.641 0 Z M 2.531 -14.047"/></g></g><g transform="matrix(1 0 0 1 603.2735 251.5078)"><g><path fill="#000000" stroke="none" d="M 9.344 0.313 C 6.914 0.313 5.035 -0.453 3.703 -1.984 C 2.367 -3.516 1.703 -5.672 1.703 -8.453 C 1.703 -11.453 2.332 -13.707 3.594 -15.219 C 4.863 -16.738 6.676 -17.5 9.031 -17.5 C 11.156 -17.5 12.832 -16.852 14.063 -15.563 C 15.289 -14.27 15.906 -12.359 15.906 -9.828 L 15.906 -8.313 L 5.313 -8.313 C 5.352 -6.031 5.766 -4.375 6.547 -3.344 C 7.328 -2.313 8.473 -1.797 9.984 -1.797 C 11.086 -1.797 12.02 -2.035 12.781 -2.516 C 13.539 -2.992 14.113 -3.539 14.5 -4.156 C 14.664 -4.094 14.828 -3.953 14.984 -3.734 C 15.148 -3.523 15.234 -3.27 15.234 -2.969 C 15.234 -2.52 15.02 -2.039 14.594 -1.531 C 14.164 -1.02 13.52 -0.582 12.656 -0.219 C 11.789 0.133 10.688 0.313 9.344 0.313 Z M 12.219 -10.141 C 12.219 -11.805 11.973 -13.145 11.484 -14.156 C 10.992 -15.176 10.16 -15.688 8.984 -15.688 C 7.879 -15.688 7.02 -15.207 6.406 -14.25 C 5.801 -13.301 5.457 -11.93 5.375 -10.141 Z M 12.219 -10.141"/></g></g><g transform="matrix(1 0 0 1 620.2735 251.5078)"><g><path fill="#000000" stroke="none" d="M 0.922 0 L 0.922 -1.438 L 1.063 -1.438 C 1.758 -1.438 2.359 -1.566 2.859 -1.828 C 3.359 -2.098 3.609 -2.738 3.609 -3.75 L 3.609 -13.531 C 3.609 -14.469 3.363 -15.066 2.875 -15.328 C 2.383 -15.586 1.789 -15.719 1.094 -15.719 L 0.984 -15.719 L 0.984 -17.156 L 6.297 -17.156 L 6.938 -14.016 L 7.109 -14.016 C 7.379 -14.68 7.688 -15.273 8.031 -15.797 C 8.375 -16.316 8.82 -16.723 9.375 -17.016 C 9.926 -17.316 10.66 -17.469 11.578 -17.469 C 12.754 -17.469 13.625 -17.25 14.188 -16.813 C 14.758 -16.375 15.047 -15.773 15.047 -15.016 C 15.047 -14.266 14.781 -13.672 14.25 -13.234 C 13.727 -12.797 12.906 -12.578 11.781 -12.578 C 11.781 -13.453 11.66 -14.094 11.422 -14.5 C 11.191 -14.906 10.766 -15.109 10.141 -15.109 C 9.586 -15.109 9.113 -14.891 8.719 -14.453 C 8.32 -14.016 8.008 -13.453 7.781 -12.766 C 7.563 -12.086 7.398 -11.375 7.297 -10.625 C 7.191 -9.875 7.141 -9.191 7.141 -8.578 L 7.141 -3.578 C 7.141 -2.641 7.391 -2.047 7.891 -1.797 C 8.391 -1.555 8.977 -1.438 9.656 -1.438 L 10.594 -1.438 L 10.594 0 Z M 0.922 0"/></g></g><g transform="matrix(1 0 0 1 636.2735 251.5078)"><g><path fill="#000000" stroke="none" d="M 7.813 0.313 C 6.188 0.313 4.984 -0.051 4.203 -0.781 C 3.43 -1.52 3.047 -2.816 3.047 -4.672 L 3.047 -15.234 L 0.609 -15.234 L 0.609 -16.609 C 1.078 -16.609 1.555 -16.703 2.047 -16.891 C 2.535 -17.086 2.953 -17.367 3.297 -17.734 C 3.953 -18.41 4.441 -19.531 4.766 -21.094 L 6.563 -21.094 L 6.563 -17.156 L 10.75 -17.156 L 10.75 -15.234 L 6.563 -15.234 L 6.563 -4.672 C 6.563 -3.629 6.77 -2.859 7.188 -2.359 C 7.602 -1.867 8.18 -1.625 8.922 -1.625 C 9.305 -1.625 9.672 -1.645 10.016 -1.688 C 10.359 -1.738 10.703 -1.797 11.047 -1.859 L 11.047 -0.281 C 10.742 -0.133 10.285 0 9.672 0.125 C 9.066 0.25 8.445 0.313 7.813 0.313 Z M 7.813 0.313"/></g></g></g><g><g transform="matrix(1 0 0 1 583.1289 310.1563)"><g><path fill="#000000" stroke="none" d="M 1.125 0 L 1.125 -1.438 L 1.797 -1.438 C 2.43 -1.438 2.984 -1.563 3.453 -1.813 C 3.922 -2.07 4.156 -2.695 4.156 -3.688 L 4.156 -19.266 C 4.156 -20.18 3.922 -20.766 3.453 -21.016 C 2.984 -21.273 2.43 -21.406 1.797 -21.406 L 1.125 -21.406 L 1.125 -22.844 L 9.922 -22.844 C 12.754 -22.844 14.875 -22.379 16.281 -21.453 C 17.695 -20.523 18.406 -19.07 18.406 -17.094 C 18.406 -15.676 18.023 -14.582 17.266 -13.813 C 16.504 -13.051 15.551 -12.488 14.406 -12.125 L 14.406 -11.969 C 15.875 -11.688 17.066 -11.066 17.984 -10.109 C 18.898 -9.148 19.359 -7.848 19.359 -6.203 C 19.359 -2.066 16.531 0 10.875 0 Z M 9.828 -12.797 C 11.598 -12.797 12.805 -13.129 13.453 -13.797 C 14.109 -14.473 14.438 -15.57 14.438 -17.094 C 14.438 -18.625 14.082 -19.68 13.375 -20.266 C 12.664 -20.859 11.461 -21.156 9.766 -21.156 L 7.875 -21.156 L 7.875 -12.797 Z M 10.719 -1.703 C 12.426 -1.703 13.629 -2.047 14.328 -2.734 C 15.035 -3.43 15.391 -4.617 15.391 -6.297 C 15.391 -7.941 15.055 -9.156 14.391 -9.938 C 13.734 -10.719 12.531 -11.109 10.781 -11.109 L 7.875 -11.109 L 7.875 -1.703 Z M 10.719 -1.703"/></g></g></g><g clip-path="url(#Lmw8PcOTclip-4)"><g transform="matrix(1 0 0 1 323.0767 263.0523)"><path fill="none" stroke="#000000" stroke-miterlimit="10" stroke-width="2.4" d="M -169.456 -188.599 C -54.811 -192.005 60.916 -192.482 170.626 -188.123 M -169.252 -188.142 C -80.534 -189.712 7.791 -188.982 170.158 -188.353 M 170.572 -187.787 C 173.974 -72.466 174.525 43.385 170.107 187.737 M 169.291 -187.88 C 172.068 -108.287 171.626 -26.959 169.302 187.702 M 169.865 189.424 C 42.099 187.803 -88.526 190.127 -168.932 188.834 M 169.759 188.331 C 85.72 190.202 1.869 190.385 -169.733 187.795 M -169.745 188.413 C -166.081 45.502 -164.85 -97.853 -169.288 -188.814 M -170.221 188.342 C -170.096 52.983 -170.28 -83.337 -169.307 -187.759"/></g></g><g><g transform="matrix(1 0 0 1 227.2344 62.4375)"><g><path fill="#000000" stroke="none" d="M 0.797 0 L 0.797 -1.438 L 1.281 -1.438 C 1.727 -1.438 2.145 -1.488 2.531 -1.594 C 2.914 -1.707 3.223 -1.914 3.453 -2.219 C 3.691 -2.531 3.813 -3.02 3.813 -3.688 L 3.813 -15.453 L 0.922 -15.453 L 0.922 -17.156 L 3.813 -17.156 L 3.813 -17.891 C 3.813 -19.953 4.445 -21.609 5.719 -22.859 C 7 -24.109 9.008 -24.734 11.75 -24.734 C 13.895 -24.734 15.473 -24.492 16.484 -24.016 C 17.504 -23.535 18.016 -22.879 18.016 -22.047 C 18.016 -21.367 17.719 -20.82 17.125 -20.406 C 16.539 -19.988 15.695 -19.781 14.594 -19.781 C 14.594 -20.207 14.492 -20.68 14.297 -21.203 C 14.109 -21.723 13.766 -22.18 13.266 -22.578 C 12.766 -22.973 12.066 -23.172 11.172 -23.172 C 10.191 -23.172 9.422 -22.953 8.859 -22.516 C 8.305 -22.078 7.91 -21.484 7.672 -20.734 C 7.441 -19.984 7.328 -19.148 7.328 -18.234 L 7.328 -17.156 L 18.344 -17.156 L 18.344 -3.688 C 18.344 -3.02 18.457 -2.531 18.688 -2.219 C 18.926 -1.914 19.234 -1.707 19.609 -1.594 C 19.992 -1.488 20.41 -1.438 20.859 -1.438 L 21.25 -1.438 L 21.25 0 L 12.094 0 L 12.094 -1.438 L 12.281 -1.438 C 12.707 -1.438 13.113 -1.484 13.5 -1.578 C 13.883 -1.68 14.195 -1.879 14.438 -2.172 C 14.688 -2.473 14.813 -2.93 14.813 -3.547 L 14.813 -15.453 L 7.328 -15.453 L 7.328 -3.688 C 7.328 -3.02 7.445 -2.531 7.688 -2.219 C 7.938 -1.914 8.254 -1.707 8.641 -1.594 C 9.023 -1.488 9.43 -1.438 9.859 -1.438 L 10.531 -1.438 L 10.531 0 Z M 0.797 0"/></g></g><g transform="matrix(1 0 0 1 249.2344 62.4375)"><g><path fill="#000000" stroke="none" d="M 0.453 0 L 0.453 -1.438 L 0.859 -1.438 C 1.566 -1.438 2.164 -1.57 2.656 -1.844 C 3.145 -2.125 3.391 -2.758 3.391 -3.75 L 3.391 -20.766 C 3.391 -21.391 3.266 -21.848 3.016 -22.141 C 2.773 -22.441 2.461 -22.641 2.078 -22.734 C 1.691 -22.828 1.285 -22.875 0.859 -22.875 L 0.453 -22.875 L 0.453 -24.313 L 6.906 -24.313 L 6.906 -3.75 C 6.906 -2.758 7.148 -2.125 7.641 -1.844 C 8.141 -1.57 8.738 -1.438 9.438 -1.438 L 9.859 -1.438 L 9.859 0 Z M 0.453 0"/></g></g><g transform="matrix(1 0 0 1 259.2344 62.4375)"><g><path fill="#000000" stroke="none" d="M 9.344 0.313 C 6.914 0.313 5.035 -0.453 3.703 -1.984 C 2.367 -3.516 1.703 -5.672 1.703 -8.453 C 1.703 -11.453 2.332 -13.707 3.594 -15.219 C 4.863 -16.738 6.676 -17.5 9.031 -17.5 C 11.156 -17.5 12.832 -16.852 14.063 -15.563 C 15.289 -14.27 15.906 -12.359 15.906 -9.828 L 15.906 -8.313 L 5.313 -8.313 C 5.352 -6.031 5.766 -4.375 6.547 -3.344 C 7.328 -2.313 8.473 -1.797 9.984 -1.797 C 11.086 -1.797 12.02 -2.035 12.781 -2.516 C 13.539 -2.992 14.113 -3.539 14.5 -4.156 C 14.664 -4.094 14.828 -3.953 14.984 -3.734 C 15.148 -3.523 15.234 -3.27 15.234 -2.969 C 15.234 -2.52 15.02 -2.039 14.594 -1.531 C 14.164 -1.02 13.52 -0.582 12.656 -0.219 C 11.789 0.133 10.688 0.313 9.344 0.313 Z M 12.219 -10.141 C 12.219 -11.805 11.973 -13.145 11.484 -14.156 C 10.992 -15.176 10.16 -15.688 8.984 -15.688 C 7.879 -15.688 7.02 -15.207 6.406 -14.25 C 5.801 -13.301 5.457 -11.93 5.375 -10.141 Z M 12.219 -10.141"/></g></g></g><g transform="matrix(1 0 0 1 -57.6937 -744.9397)"><path fill="none" stroke="#000000" stroke-miterlimit="10" stroke-width="2.4" d="M 238.053 884.205 C 288.963 886.557 338.303 884.498 429.112 884.073 M 236.975 881.94 C 287.362 884.717 339.35 884.479 429.166 883.698"/></g><g transform="matrix(1 0 0 1 -57.6937 -744.9397)"><path fill="none" stroke="#000000" stroke-miterlimit="10" stroke-width="2.4" d="M 247.608 996.518 C 316.217 996.498 382.483 996.33 418.455 994.44 M 247.037 995.362 C 302.998 991.678 359.19 991.658 418.549 995.209"/></g><g transform="matrix(1 0 0 1 -57.6937 -744.9397)"><path fill="none" stroke="#000000" stroke-miterlimit="10" stroke-width="2.4" d="M 236.041 1118.373 C 297.627 1115.159 360.412 1113.959 418.787 1113.002 M 237.76 1118.682 C 289.416 1119.834 341.729 1118.291 416.67 1114.604"/></g><g><g transform="matrix(1 0 0 1 263.6524 238.2344)"><g><path fill="#000000" stroke="none" d="M 1.797 0 L 1.797 -2.563 L 6.938 -8.422 C 8.133 -9.742 9.066 -10.898 9.734 -11.891 C 10.41 -12.879 10.891 -13.816 11.172 -14.703 C 11.461 -15.586 11.609 -16.52 11.609 -17.5 C 11.609 -18.738 11.352 -19.707 10.844 -20.406 C 10.332 -21.113 9.578 -21.469 8.578 -21.469 C 7.66 -21.469 6.961 -21.254 6.484 -20.828 C 6.004 -20.398 5.664 -19.813 5.469 -19.063 C 5.281 -18.32 5.188 -17.484 5.188 -16.547 C 4.332 -16.547 3.602 -16.695 3 -17 C 2.406 -17.313 2.109 -17.914 2.109 -18.813 C 2.109 -20.031 2.645 -21.063 3.719 -21.906 C 4.801 -22.75 6.422 -23.172 8.578 -23.172 C 10.691 -23.172 12.336 -22.676 13.516 -21.688 C 14.703 -20.707 15.297 -19.41 15.297 -17.797 C 15.297 -16.805 15.094 -15.848 14.688 -14.922 C 14.281 -13.992 13.672 -13.016 12.859 -11.984 C 12.047 -10.953 11.016 -9.785 9.766 -8.484 L 4.453 -2.813 L 11.75 -2.813 C 12.625 -2.813 13.25 -3.039 13.625 -3.5 C 14.008 -3.957 14.281 -4.52 14.438 -5.188 L 14.594 -5.859 L 16.094 -5.859 L 15.938 0 Z M 1.797 0"/></g></g></g><g><g transform="matrix(1 0 0 1 266.0195 364.4102)"><g><path fill="#000000" stroke="none" d="M 7.906 0.313 C 5.707 0.313 4.113 -0.051 3.125 -0.781 C 2.145 -1.52 1.656 -2.379 1.656 -3.359 C 1.656 -4.047 1.863 -4.578 2.281 -4.953 C 2.695 -5.336 3.227 -5.531 3.875 -5.531 C 3.875 -4.344 4.227 -3.379 4.938 -2.641 C 5.656 -1.898 6.645 -1.531 7.906 -1.531 C 8.719 -1.531 9.461 -1.691 10.141 -2.016 C 10.828 -2.336 11.383 -2.859 11.813 -3.578 C 12.238 -4.305 12.453 -5.301 12.453 -6.563 C 12.453 -7.883 11.957 -8.941 10.969 -9.734 C 9.988 -10.535 8.625 -10.938 6.875 -10.938 L 5.625 -10.938 L 5.625 -12.672 L 6.906 -12.672 C 8.32 -12.672 9.473 -13.113 10.359 -14 C 11.242 -14.883 11.688 -16.07 11.688 -17.563 C 11.688 -18.781 11.43 -19.734 10.922 -20.422 C 10.422 -21.117 9.609 -21.469 8.484 -21.469 C 7.566 -21.469 6.859 -21.238 6.359 -20.781 C 5.867 -20.32 5.535 -19.727 5.359 -19 C 5.18 -18.281 5.094 -17.492 5.094 -16.641 C 4.238 -16.641 3.516 -16.789 2.922 -17.094 C 2.336 -17.406 2.047 -18 2.047 -18.875 C 2.047 -20.07 2.586 -21.086 3.672 -21.922 C 4.766 -22.754 6.379 -23.172 8.516 -23.172 C 10.598 -23.172 12.27 -22.723 13.531 -21.828 C 14.789 -20.93 15.422 -19.672 15.422 -18.047 C 15.422 -16.598 14.941 -15.352 13.984 -14.313 C 13.023 -13.281 11.82 -12.57 10.375 -12.188 C 10.969 -12.102 11.602 -11.953 12.281 -11.734 C 12.969 -11.523 13.609 -11.207 14.203 -10.781 C 14.805 -10.352 15.289 -9.789 15.656 -9.094 C 16.031 -8.406 16.219 -7.551 16.219 -6.531 C 16.219 -5.25 15.973 -4.164 15.484 -3.281 C 14.992 -2.395 14.336 -1.691 13.516 -1.172 C 12.691 -0.648 11.797 -0.27 10.828 -0.031 C 9.859 0.195 8.883 0.313 7.906 0.313 Z M 7.906 0.313"/></g></g></g><g><g transform="matrix(1 0 0 1 264.3711 132.4649)"><g><path fill="#000000" stroke="none" d="M 3.016 0 L 3.016 -1.438 L 5.281 -1.438 C 5.957 -1.438 6.531 -1.57 7 -1.844 C 7.477 -2.125 7.719 -2.738 7.719 -3.688 L 7.719 -20.25 C 6.906 -19.27 6.172 -18.469 5.516 -17.844 C 4.867 -17.227 4.223 -16.922 3.578 -16.922 C 3.109 -16.922 2.711 -17.098 2.391 -17.453 C 2.078 -17.805 1.922 -18.27 1.922 -18.844 C 2.555 -19.02 3.242 -19.273 3.984 -19.609 C 4.723 -19.953 5.613 -20.52 6.656 -21.313 L 8.891 -22.969 L 11.391 -22.969 L 11.391 -3.688 C 11.391 -2.758 11.617 -2.148 12.078 -1.859 C 12.535 -1.578 13.117 -1.438 13.828 -1.438 L 15.516 -1.438 L 15.516 0 Z M 3.016 0"/></g></g></g><g clip-path="url(#Lmw8PcOTclip-5)"><g transform="matrix(1 0 0 1 888.6019 262.615)"><path fill="none" stroke="#000000" stroke-miterlimit="10" stroke-width="2.4" d="M -169.457 -188.599 C -54.809 -192.006 60.918 -192.482 170.625 -188.123 M -169.254 -188.142 C -80.536 -189.709 7.789 -188.982 170.16 -188.353 M 170.574 -187.787 C 173.972 -72.467 174.527 43.385 170.105 187.737 M 169.293 -187.881 C 172.066 -108.283 171.625 -26.959 169.304 187.701 M 169.863 189.424 C 42.101 187.803 -88.524 190.127 -168.93 188.834 M 169.761 188.33 C 85.718 190.201 1.867 190.385 -169.735 187.795 M -169.746 188.412 C -166.078 45.502 -164.848 -97.853 -169.289 -188.814 M -170.219 188.342 C -170.094 52.983 -170.278 -83.338 -169.309 -187.76"/></g></g><g><g transform="matrix(1 0 0 1 792.7578 62)"><g><path fill="#000000" stroke="none" d="M 0.797 0 L 0.797 -1.438 L 1.281 -1.438 C 1.727 -1.438 2.145 -1.488 2.531 -1.594 C 2.914 -1.707 3.223 -1.914 3.453 -2.219 C 3.691 -2.531 3.813 -3.02 3.813 -3.688 L 3.813 -15.453 L 0.922 -15.453 L 0.922 -17.156 L 3.813 -17.156 L 3.813 -17.891 C 3.813 -19.953 4.445 -21.609 5.719 -22.859 C 7 -24.109 9.008 -24.734 11.75 -24.734 C 13.895 -24.734 15.473 -24.492 16.484 -24.016 C 17.504 -23.535 18.016 -22.879 18.016 -22.047 C 18.016 -21.367 17.719 -20.82 17.125 -20.406 C 16.539 -19.988 15.695 -19.781 14.594 -19.781 C 14.594 -20.207 14.492 -20.68 14.297 -21.203 C 14.109 -21.723 13.766 -22.18 13.266 -22.578 C 12.766 -22.973 12.066 -23.172 11.172 -23.172 C 10.191 -23.172 9.422 -22.953 8.859 -22.516 C 8.305 -22.078 7.91 -21.484 7.672 -20.734 C 7.441 -19.984 7.328 -19.148 7.328 -18.234 L 7.328 -17.156 L 18.344 -17.156 L 18.344 -3.688 C 18.344 -3.02 18.457 -2.531 18.688 -2.219 C 18.926 -1.914 19.234 -1.707 19.609 -1.594 C 19.992 -1.488 20.41 -1.438 20.859 -1.438 L 21.25 -1.438 L 21.25 0 L 12.094 0 L 12.094 -1.438 L 12.281 -1.438 C 12.707 -1.438 13.113 -1.484 13.5 -1.578 C 13.883 -1.68 14.195 -1.879 14.438 -2.172 C 14.688 -2.473 14.813 -2.93 14.813 -3.547 L 14.813 -15.453 L 7.328 -15.453 L 7.328 -3.688 C 7.328 -3.02 7.445 -2.531 7.688 -2.219 C 7.938 -1.914 8.254 -1.707 8.641 -1.594 C 9.023 -1.488 9.43 -1.438 9.859 -1.438 L 10.531 -1.438 L 10.531 0 Z M 0.797 0"/></g></g><g transform="matrix(1 0 0 1 814.7578 62)"><g><path fill="#000000" stroke="none" d="M 0.453 0 L 0.453 -1.438 L 0.859 -1.438 C 1.566 -1.438 2.164 -1.57 2.656 -1.844 C 3.145 -2.125 3.391 -2.758 3.391 -3.75 L 3.391 -20.766 C 3.391 -21.391 3.266 -21.848 3.016 -22.141 C 2.773 -22.441 2.461 -22.641 2.078 -22.734 C 1.691 -22.828 1.285 -22.875 0.859 -22.875 L 0.453 -22.875 L 0.453 -24.313 L 6.906 -24.313 L 6.906 -3.75 C 6.906 -2.758 7.148 -2.125 7.641 -1.844 C 8.141 -1.57 8.738 -1.438 9.438 -1.438 L 9.859 -1.438 L 9.859 0 Z M 0.453 0"/></g></g><g transform="matrix(1 0 0 1 824.7578 62)"><g><path fill="#000000" stroke="none" d="M 9.344 0.313 C 6.914 0.313 5.035 -0.453 3.703 -1.984 C 2.367 -3.516 1.703 -5.672 1.703 -8.453 C 1.703 -11.453 2.332 -13.707 3.594 -15.219 C 4.863 -16.738 6.676 -17.5 9.031 -17.5 C 11.156 -17.5 12.832 -16.852 14.063 -15.563 C 15.289 -14.27 15.906 -12.359 15.906 -9.828 L 15.906 -8.313 L 5.313 -8.313 C 5.352 -6.031 5.766 -4.375 6.547 -3.344 C 7.328 -2.313 8.473 -1.797 9.984 -1.797 C 11.086 -1.797 12.02 -2.035 12.781 -2.516 C 13.539 -2.992 14.113 -3.539 14.5 -4.156 C 14.664 -4.094 14.828 -3.953 14.984 -3.734 C 15.148 -3.523 15.234 -3.27 15.234 -2.969 C 15.234 -2.52 15.02 -2.039 14.594 -1.531 C 14.164 -1.02 13.52 -0.582 12.656 -0.219 C 11.789 0.133 10.688 0.313 9.344 0.313 Z M 12.219 -10.141 C 12.219 -11.805 11.973 -13.145 11.484 -14.156 C 10.992 -15.176 10.16 -15.688 8.984 -15.688 C 7.879 -15.688 7.02 -15.207 6.406 -14.25 C 5.801 -13.301 5.457 -11.93 5.375 -10.141 Z M 12.219 -10.141"/></g></g></g><g transform="matrix(1 0 0 1 -57.6937 -744.9397)"><path fill="none" stroke="#000000" stroke-miterlimit="10" stroke-width="2.4" d="M 803.577 883.768 C 854.491 886.119 903.83 884.061 994.639 883.635 M 802.502 881.502 C 852.889 884.28 904.877 884.041 994.69 883.26"/></g><g transform="matrix(1 0 0 1 -57.6937 -744.9397)"><path fill="none" stroke="#000000" stroke-miterlimit="10" stroke-width="2.4" d="M 801.565 1117.936 C 863.155 1114.721 925.94 1113.522 984.311 1112.565 M 803.284 1118.244 C 854.94 1119.397 907.252 1117.854 982.194 1114.166"/></g><g><g transform="matrix(1 0 0 1 831.5469 363.9727)"><g><path fill="#000000" stroke="none" d="M 7.906 0.313 C 5.707 0.313 4.113 -0.051 3.125 -0.781 C 2.145 -1.52 1.656 -2.379 1.656 -3.359 C 1.656 -4.047 1.863 -4.578 2.281 -4.953 C 2.695 -5.336 3.227 -5.531 3.875 -5.531 C 3.875 -4.344 4.227 -3.379 4.938 -2.641 C 5.656 -1.898 6.645 -1.531 7.906 -1.531 C 8.719 -1.531 9.461 -1.691 10.141 -2.016 C 10.828 -2.336 11.383 -2.859 11.813 -3.578 C 12.238 -4.305 12.453 -5.301 12.453 -6.563 C 12.453 -7.883 11.957 -8.941 10.969 -9.734 C 9.988 -10.535 8.625 -10.938 6.875 -10.938 L 5.625 -10.938 L 5.625 -12.672 L 6.906 -12.672 C 8.32 -12.672 9.473 -13.113 10.359 -14 C 11.242 -14.883 11.688 -16.07 11.688 -17.563 C 11.688 -18.781 11.43 -19.734 10.922 -20.422 C 10.422 -21.117 9.609 -21.469 8.484 -21.469 C 7.566 -21.469 6.859 -21.238 6.359 -20.781 C 5.867 -20.32 5.535 -19.727 5.359 -19 C 5.18 -18.281 5.094 -17.492 5.094 -16.641 C 4.238 -16.641 3.516 -16.789 2.922 -17.094 C 2.336 -17.406 2.047 -18 2.047 -18.875 C 2.047 -20.07 2.586 -21.086 3.672 -21.922 C 4.766 -22.754 6.379 -23.172 8.516 -23.172 C 10.598 -23.172 12.27 -22.723 13.531 -21.828 C 14.789 -20.93 15.422 -19.672 15.422 -18.047 C 15.422 -16.598 14.941 -15.352 13.984 -14.313 C 13.023 -13.281 11.82 -12.57 10.375 -12.188 C 10.969 -12.102 11.602 -11.953 12.281 -11.734 C 12.969 -11.523 13.609 -11.207 14.203 -10.781 C 14.805 -10.352 15.289 -9.789 15.656 -9.094 C 16.031 -8.406 16.219 -7.551 16.219 -6.531 C 16.219 -5.25 15.973 -4.164 15.484 -3.281 C 14.992 -2.395 14.336 -1.691 13.516 -1.172 C 12.691 -0.648 11.797 -0.27 10.828 -0.031 C 9.859 0.195 8.883 0.313 7.906 0.313 Z M 7.906 0.313"/></g></g></g><g><g transform="matrix(1 0 0 1 829.8946 132.0274)"><g><path fill="#000000" stroke="none" d="M 3.016 0 L 3.016 -1.438 L 5.281 -1.438 C 5.957 -1.438 6.531 -1.57 7 -1.844 C 7.477 -2.125 7.719 -2.738 7.719 -3.688 L 7.719 -20.25 C 6.906 -19.27 6.172 -18.469 5.516 -17.844 C 4.867 -17.227 4.223 -16.922 3.578 -16.922 C 3.109 -16.922 2.711 -17.098 2.391 -17.453 C 2.078 -17.805 1.922 -18.27 1.922 -18.844 C 2.555 -19.02 3.242 -19.273 3.984 -19.609 C 4.723 -19.953 5.613 -20.52 6.656 -21.313 L 8.891 -22.969 L 11.391 -22.969 L 11.391 -3.688 C 11.391 -2.758 11.617 -2.148 12.078 -1.859 C 12.535 -1.578 13.117 -1.438 13.828 -1.438 L 15.516 -1.438 L 15.516 0 Z M 3.016 0"/></g></g></g></g></g></g></svg>
</svg>